<mxfile host="app.diagrams.net" agent="Mozilla/5.0 (X11; Linux x86_64; rv:128.0) Gecko/20100101 Firefox/128.0" border="50" scale="3" compressed="false" locked="false" version="24.7.8">
  <diagram name="Blank" id="YmL12bMKpDGza6XwsDPr">
    <mxGraphModel dx="1434" dy="727" grid="0" gridSize="10" guides="1" tooltips="1" connect="1" arrows="1" fold="1" page="0" pageScale="1" pageWidth="827" pageHeight="1169" background="none" math="1" shadow="0">
      <root>
        <mxCell id="X5NqExCQtvZxIxQ7pmgY-0" />
        <mxCell id="1" parent="X5NqExCQtvZxIxQ7pmgY-0" />
        <mxCell id="Gr0Zq-AI6Quabplr0KPa-179" value="Mindmap" style="swimlane;html=1;startSize=20;horizontal=1;containerType=tree;labelBackgroundColor=none;strokeColor=#D4E1F5;strokeWidth=1;fillColor=none;fontFamily=Comic Sans MS;fontSize=9;swimlaneLine=0;dashed=1;collapsible=0;" parent="1" vertex="1">
          <mxGeometry x="122" y="82" width="899" height="441" as="geometry" />
        </mxCell>
        <mxCell id="Gr0Zq-AI6Quabplr0KPa-222" value="" style="endArrow=classic;html=1;curved=1;sourcePerimeterSpacing=10;strokeColor=#999900;targetPerimeterSpacing=7;rounded=0;fontSize=12;startSize=8;endSize=8;exitX=0.987;exitY=0.373;exitDx=0;exitDy=0;exitPerimeter=0;" parent="Gr0Zq-AI6Quabplr0KPa-179" source="AhSeK3bcQBTbquubD1BJ-4" target="AhSeK3bcQBTbquubD1BJ-5" edge="1">
          <mxGeometry width="50" height="50" relative="1" as="geometry">
            <mxPoint x="345" y="550" as="sourcePoint" />
            <mxPoint x="325" y="510" as="targetPoint" />
            <Array as="points">
              <mxPoint x="290" y="11" />
              <mxPoint x="352" y="6" />
              <mxPoint x="254" y="27" />
              <mxPoint x="197" y="60" />
              <mxPoint x="284" y="42" />
              <mxPoint x="319" y="109" />
            </Array>
          </mxGeometry>
        </mxCell>
        <mxCell id="AhSeK3bcQBTbquubD1BJ-4" value="Source" style="points=[[0.13,0.02,0],[0.5,0,0],[0.87,0.02,0],[0.885,0.4,0],[0.985,0.985,0],[0.5,1,0],[0.015,0.985,0],[0.115,0.4,0]];verticalLabelPosition=bottom;sketch=0;html=1;verticalAlign=top;aspect=fixed;align=center;pointerEvents=1;shape=mxgraph.cisco19.laptop;fillColor=#005073;strokeColor=none;" parent="Gr0Zq-AI6Quabplr0KPa-179" vertex="1">
          <mxGeometry x="8" y="8" width="50" height="35" as="geometry" />
        </mxCell>
        <mxCell id="rB0Ud0haQM11EgC8YsgJ-2" style="edgeStyle=orthogonalEdgeStyle;rounded=0;orthogonalLoop=1;jettySize=auto;html=1;curved=1;" edge="1" parent="Gr0Zq-AI6Quabplr0KPa-179" source="AhSeK3bcQBTbquubD1BJ-5" target="rB0Ud0haQM11EgC8YsgJ-1">
          <mxGeometry relative="1" as="geometry" />
        </mxCell>
        <mxCell id="AhSeK3bcQBTbquubD1BJ-5" value="&lt;span class=&quot;text-success&quot;&gt;&lt;span style=&quot;cursor:pointer;&quot; class=&quot;target&quot;&gt;&lt;span class=&quot;target-0 cursor-pointer&quot;&gt;10.129.229.129&lt;br&gt;&lt;/span&gt;&lt;/span&gt;&lt;/span&gt;172.16.5.15" style="image;aspect=fixed;perimeter=ellipsePerimeter;html=1;align=center;shadow=0;dashed=0;spacingTop=3;image=img/lib/active_directory/web_server.svg;" parent="Gr0Zq-AI6Quabplr0KPa-179" vertex="1">
          <mxGeometry x="339" y="108" width="40" height="50" as="geometry" />
        </mxCell>
        <mxCell id="rB0Ud0haQM11EgC8YsgJ-4" style="edgeStyle=orthogonalEdgeStyle;rounded=0;orthogonalLoop=1;jettySize=auto;html=1;curved=1;" edge="1" parent="Gr0Zq-AI6Quabplr0KPa-179" source="rB0Ud0haQM11EgC8YsgJ-1" target="rB0Ud0haQM11EgC8YsgJ-3">
          <mxGeometry relative="1" as="geometry" />
        </mxCell>
        <mxCell id="rB0Ud0haQM11EgC8YsgJ-1" value="172.16.5.35&lt;br&gt;&lt;div&gt;172.16.6.35&lt;/div&gt;&lt;div&gt;&lt;br&gt;&lt;/div&gt;" style="image;aspect=fixed;perimeter=ellipsePerimeter;html=1;align=center;shadow=0;dashed=0;spacingTop=3;image=img/lib/active_directory/generic_server.svg;" vertex="1" parent="Gr0Zq-AI6Quabplr0KPa-179">
          <mxGeometry x="496" y="58" width="28.000000000000004" height="50" as="geometry" />
        </mxCell>
        <mxCell id="rB0Ud0haQM11EgC8YsgJ-6" style="edgeStyle=entityRelationEdgeStyle;rounded=0;orthogonalLoop=1;jettySize=auto;html=1;entryX=0;entryY=0.5;entryDx=0;entryDy=0;" edge="1" parent="Gr0Zq-AI6Quabplr0KPa-179" source="rB0Ud0haQM11EgC8YsgJ-3" target="rB0Ud0haQM11EgC8YsgJ-5">
          <mxGeometry relative="1" as="geometry" />
        </mxCell>
        <mxCell id="rB0Ud0haQM11EgC8YsgJ-3" value="172.16.6.25" style="image;aspect=fixed;perimeter=ellipsePerimeter;html=1;align=center;shadow=0;dashed=0;spacingTop=3;image=img/lib/active_directory/generic_server.svg;" vertex="1" parent="Gr0Zq-AI6Quabplr0KPa-179">
          <mxGeometry x="624" y="21" width="28.000000000000004" height="50" as="geometry" />
        </mxCell>
        <mxCell id="rB0Ud0haQM11EgC8YsgJ-5" value="&lt;div&gt;Domain Controller share folder&lt;/div&gt;" style="shape=image;html=1;verticalAlign=top;verticalLabelPosition=bottom;labelBackgroundColor=#ffffff;imageAspect=0;aspect=fixed;image=https://cdn2.iconfinder.com/data/icons/crystalproject/128x128/apps/sharemanager.png" vertex="1" parent="Gr0Zq-AI6Quabplr0KPa-179">
          <mxGeometry x="712" y="40" width="64" height="64" as="geometry" />
        </mxCell>
      </root>
    </mxGraphModel>
  </diagram>
</mxfile>
